<svg xmlns="http://www.w3.org/2000/svg" viewBox="0 0 800 1000" role="img" aria-label="雨停之后占位作品"><rect width="800" height="1000" fill="#dce3e7"/><path d="M116-30C62 157 230 217 148 400C72 568 199 699 135 1040" fill="none" stroke="#224f72" stroke-width="34"/><path d="M372-10C441 137 316 253 408 393C505 541 356 692 450 1010" fill="none" stroke="#6f91a4" stroke-width="13"/><path d="M649-20C558 134 716 279 622 448C525 622 704 766 622 1020" fill="none" stroke="#171715" stroke-width="24"/><path d="M-20 693C154 635 230 716 381 663C519 614 622 666 830 591" fill="none" stroke="#bd4b30" stroke-width="8"/><circle cx="283" cy="251" r="34" fill="#bd4b30"/></svg>