<svg xmlns="http://www.w3.org/2000/svg" viewBox="0 0 1200 750" role="img" aria-label="无名花园占位作品"><rect width="1200" height="750" fill="#d7d0a7"/><path d="M0 728C62 518 115 379 257 261C379 159 524 108 646 1H0Z" fill="#244a3d"/><path d="M1200 0H827C751 107 753 219 864 300C987 390 1067 484 1200 668Z" fill="#7d3a2b"/><path d="M128 750C241 552 374 493 529 517C688 541 800 652 887 750Z" fill="#bd4b30"/><path d="M430 750C410 600 433 447 542 329C659 203 777 141 894 0H1048C876 188 845 334 916 469C966 562 1006 661 1005 750Z" fill="#60806a"/><ellipse cx="557" cy="288" rx="131" ry="87" fill="#e9e0c7" transform="rotate(-28 557 288)"/></svg>